<?xml version="1.0" encoding="utf-8"?>
<!-- Generator: Adobe Illustrator 21.1.0, SVG Export Plug-In . SVG Version: 6.00 Build 0)  -->
<svg version="1.1" id="Layer_1" xmlns="http://www.w3.org/2000/svg" xmlns:xlink="http://www.w3.org/1999/xlink" x="0px" y="0px"
	 viewBox="0 0 27 32" style="enable-background:new 0 0 27 32;" xml:space="preserve">
<style type="text/css">
	.st0{fill:#BFBFBF;}
</style>
<title>cw</title>
<path class="st0" d="M27.4,4.6v8c0,0.3-0.1,0.6-0.3,0.8c-0.2,0.2-0.5,0.4-0.8,0.4h-8c-0.5,0-0.8-0.2-1-0.7c-0.2-0.5-0.1-0.9,0.2-1.2
	l2.5-2.5c-1.7-1.6-3.8-2.5-6.2-2.5c-1.2,0-2.4,0.2-3.6,0.7s-2.1,1.1-2.9,2c-0.8,0.8-1.5,1.8-2,2.9S4.6,14.8,4.6,16
	c0,1.2,0.2,2.4,0.7,3.6c0.5,1.1,1.1,2.1,2,2.9c0.8,0.8,1.8,1.5,2.9,2s2.3,0.7,3.6,0.7c1.4,0,2.7-0.3,4-0.9c1.3-0.6,2.3-1.5,3.2-2.6
	c0.1-0.1,0.2-0.2,0.4-0.2c0.2,0,0.3,0.1,0.4,0.2l2.4,2.5c0.1,0.1,0.2,0.2,0.2,0.4c0,0.1,0,0.3-0.2,0.4c-1.3,1.6-2.8,2.8-4.7,3.6
	c-1.9,0.9-3.8,1.3-5.8,1.3c-1.9,0-3.6-0.4-5.3-1.1c-1.7-0.7-3.2-1.7-4.4-2.9c-1.2-1.2-2.2-2.7-2.9-4.4C0.3,19.6,0,17.9,0,16
	s0.4-3.6,1.1-5.3S2.8,7.5,4,6.3s2.7-2.2,4.4-2.9s3.4-1.1,5.3-1.1c1.7,0,3.4,0.3,5.1,1s3.1,1.6,4.4,2.8l2.3-2.3
	c0.4-0.4,0.8-0.5,1.2-0.3C27.2,3.7,27.4,4.1,27.4,4.6z"/>
</svg>
